<?xml version="1.0" encoding="UTF-8" standalone="no"?>
<!-- Created with Inkscape (http://www.inkscape.org/) -->

<svg
   width="445.09671mm"
   height="447.04233mm"
   viewBox="0 0 445.09671 447.04233"
   version="1.1"
   id="svg1"
   xml:space="preserve"
   xmlns="http://www.w3.org/2000/svg"
   xmlns:svg="http://www.w3.org/2000/svg"><defs
     id="defs1" /><g
     id="layer1"
     transform="translate(266.94872,269.46788)"><g
       id="g1"
       transform="matrix(0.71959037,0,0,0.71959037,2.7074938,-106.08533)"><path
         d="m -21.308836,78.374655 c -11.48,6.7 -21.17,12.68 -21.29,13.4 -0.48,1.44 41.87000015,25.839995 44.2600002,25.359995 2.51,-0.36 44.0199998,-23.929995 44.1399998,-24.999995 0,-0.96 -43.5399998,-26.08 -44.97999985,-25.96 -0.6,0 -10.51999995,5.62 -22.13000015,12.2"
         class="st2"
         id="path3-8" /><path
         d="m -120.72846,304.47618 0.36,26.44 55.029992,31.7 c 30.26,17.35 55.38,31.58 55.86,31.58 0.6,0 0.84,-11.72 0.72,-25.96 l -0.36,-25.96 -49.64,-28.47 c -27.28,-15.79 -52.519992,-30.26 -55.989992,-32.18 l -6.22,-3.71 z"
         class="st1"
         id="path9" /><path
         d="m 60.402734,308.40014 c -28.71,16.63 -53.5899996,31.1 -55.3899996,32.3 l -3.23,2.03 v 25.72 c 0,14.12 0.24,25.72 0.6,25.72 0.36,0 25.7199996,-14.36 56.2199996,-31.94 l 55.630006,-32.06 v -25.96 c 0,-14.36 -0.36,-26.08 -0.84,-25.96 -0.6,0 -24.400006,13.64 -52.990006,30.15"
         class="st0"
         id="path14" /><path
         d="m -120.88728,232.81504 0.36,26.44 55.030004,31.7 c 30.26,17.35 55.38,31.58 55.8599971,31.58 0.5999995,0 0.8399995,-11.72 0.7199995,-25.96 l -0.3599995,-25.96 -49.6399971,-28.47 c -27.28,-15.79 -52.520004,-30.26 -55.990004,-32.18 l -6.22,-3.71 z"
         class="st1"
         id="path9-3"
         style="fill:#3793d3" /><path
         d="m 60.243923,237.47437 c -28.71,16.63 -53.5900003,31.1 -55.3900003,32.3 l -3.2300001,2.03 v 25.72 c 0,14.12 0.2400001,25.72 0.6000001,25.72 0.36,0 25.7200003,-14.36 56.2200003,-31.94 l 55.630007,-32.06 v -25.96 c 0,-14.36 -0.36,-26.08 -0.84,-25.96 -0.6,0 -24.400007,13.64 -52.990007,30.15"
         class="st0"
         id="path14-6"
         style="fill:#53bcea" /><path
         d="m -61.209785,24.638217 c -27.51,15.79 -49.640005,29.19 -49.050005,29.67 1.91,2.03 42.830005,25 44.260005,25 1.67,0 50.96,-27.99 54.43,-30.86 1.7899998,-1.67 2.0299998,-4.55 2.0299998,-27.39 0,-14.0000003 -0.36,-25.4800003 -0.8399998,-25.3600003 -0.59,-0.01 -23.44,13.03 -50.83,28.9400003"
         class="st0"
         id="path4-7"
         style="fill:#53bcea" /><path
         d="m 11.545587,22.263589 v 26.2 l 27.389999,15.79 c 15.19,8.73 28.11,15.79 28.95,15.79 1.32,0 39.479994,-21.29 43.419994,-24.28 1.56,-1.2 -4.9,-5.38 -40.789994,-25.96 -23.45,-13.52 -46.3,-26.5600002 -50.84,-29.07000024 L 11.545587,-3.9364112 Z"
         class="st1"
         id="path5-3"
         style="fill:#3793d3" /><path
         d="m -246.29191,26.786961 0.36,26.44 55.03,31.699998 c 30.26,17.349991 55.38,31.579951 55.86,31.579951 0.6,0 0.84,-11.71996 0.72,-25.959951 l -0.36,-25.959998 -49.64,-28.47 c -27.28,-15.79 -52.52,-30.2600009 -55.99,-32.1800012 l -6.22,-3.71000046 z"
         class="st1"
         id="path9-6"
         style="fill:#3793d3" /><path
         d="m -121.73979,98.448217 0.36,26.440003 55.030005,31.7 c 30.26,17.35 55.38,31.58 55.86,31.58 0.5999998,0 0.8399998,-11.72 0.7199998,-25.96 l -0.3599998,-25.96 -49.64,-28.47 c -27.28,-15.790003 -52.520005,-30.260003 -55.990005,-32.180003 l -6.22,-3.71 z"
         class="st1"
         id="path9-9"
         style="fill:#3793d3" /><path
         d="m 60.126788,103.84292 c -28.71,16.63 -53.589999,31.1 -55.389999,32.3 l -3.2300001,2.03 v 25.72 c 0,14.12 0.24,25.72 0.6,25.72 0.36,0 25.7199991,-14.36 56.2199991,-31.94 l 55.629992,-32.06 V 99.652918 c 0,-14.360007 -0.36,-26.080007 -0.84,-25.960007 -0.6,0 -24.399992,13.64 -52.989992,30.150009"
         class="st0"
         id="path14-0"
         style="fill:#53bcea" /><path
         d="m -145.57443,-67.133896 c -11.48,6.7 -21.17,12.68 -21.29,13.4 -0.48,1.44 41.87,25.83999 44.26,25.35999 2.51,-0.36 44.020007,-23.92999 44.140007,-24.99999 0,-0.96 -43.540007,-26.08 -44.980007,-25.96 -0.6,0 -10.52,5.62 -22.13,12.2"
         class="st2"
         id="path3-8-5"
         style="fill:#adadad" /><path
         d="m -185.47538,-120.87034 c -27.51,15.79 -49.64,29.190004 -49.05,29.670004 1.91,2.03 42.83,25 44.26,25 1.67,0 50.96,-27.99 54.43,-30.86 1.79,-1.67 2.03,-4.550004 2.03,-27.390004 0,-14 -0.36,-25.48 -0.84,-25.36 -0.59,-0.01 -23.44,13.03 -50.83,28.94"
         class="st0"
         id="path4-7-1"
         style="fill:#53bcea" /><path
         d="m -113.45538,-123.98034 v 26.200004 l 27.390007,15.79 c 15.19,8.73 28.109999,15.79 28.949999,15.79 1.32,0 39.48,-21.29 43.42,-24.28 1.56,-1.2 -4.9,-5.38 -40.79,-25.960004 -23.449999,-13.52 -46.300006,-26.56 -50.840006,-29.07 l -8.13,-4.67 z"
         class="st1"
         id="path5-3-2"
         style="fill:#3793d3" /><path
         d="m -246.00538,-47.060336 0.36,26.44 55.03,31.7 c 30.26,17.35 55.38,31.58 55.86,31.58 0.6,0 0.84,-11.72 0.72,-25.96 l -0.36,-25.9599996 -49.64,-28.4700004 c -27.28,-15.79 -52.52,-30.26 -55.99,-32.18 l -6.22,-3.71 z"
         class="st1"
         id="path9-9-4"
         style="fill:#3793d3" /><path
         d="m -65.609543,-39.459526 c -28.71,16.63 -53.590007,31.1000004 -55.390007,32.3000004 l -3.23,2.03 V 20.590474 c 0,14.12 0.24,25.72 0.6,25.72 0.36,0 25.720006,-14.36 56.220007,-31.94 l 55.629999,-32.06 v -25.96 c 0,-14.36 -0.36,-26.08 -0.84,-25.96 -0.6,0 -24.4,13.64 -52.989999,30.15"
         class="st0"
         id="path14-0-6"
         style="fill:#53bcea" /><path
         d="m 186.0911,34.833394 c -28.71,16.63 -53.59,31.099999 -55.39,32.299999 l -3.23,2.03 v 25.720001 c 0,14.119976 0.24,25.719946 0.6,25.719946 0.36,0 25.72,-14.35996 56.22,-31.939946 l 55.63,-32.060001 V 30.643394 c 0,-14.36 -0.36001,-26.0800011 -0.84001,-25.9600011 -0.59999,0 -24.4,13.6400011 -52.99,30.1500011"
         class="st0"
         id="path14-5-3"
         style="fill:#53bcea" /><path
         d="m -374.49572,-48.8804 0.36,26.440072 55.03,31.7000888 c 30.26,17.3500482 55.38,31.5800862 55.86,31.5800862 0.6,0 0.84,-11.720032 0.72,-25.96007 l -0.36,-25.960075 -49.64,-28.470076 c -27.28,-15.790044 -52.52,-30.260082 -55.99,-32.180088 l -6.22,-3.71001 z"
         class="st1"
         id="path9-6-3"
         style="fill:#3793d3" /><path
         d="m -121.55405,166.44581 0.36,26.44 55.029992,31.7 c 30.259996,17.35 55.379996,31.58 55.859996,31.58 0.5999996,0 0.8399996,-11.72 0.7199996,-25.96 l -0.36,-25.96 -49.6399996,-28.47 c -27.279996,-15.79 -52.519988,-30.26 -55.989988,-32.18 l -6.22,-3.71 z"
         class="st1"
         id="path9-2"
         style="fill:#3793d3" /><path
         d="m 60.312512,171.10514 c -28.71,16.63 -53.5900002,31.1 -55.3900002,32.3 l -3.23,2.03 v 25.72 c 0,14.12 0.24,25.72 0.6,25.72 0.36,0 25.7200002,-14.36 56.2200002,-31.94 l 55.630008,-32.06 v -25.96 c 0,-14.36 -0.36,-26.08 -0.84,-25.96 -0.6,0 -24.400008,13.64 -52.990008,30.15"
         class="st0"
         id="path14-4"
         style="fill:#53bcea" /><path
         d="m -273.30792,-144.00295 c -11.48,6.7 -21.17,12.68 -21.29,13.4 -0.48,1.44 41.87,25.83999 44.26,25.35999 2.51,-0.36 44.02,-23.92999 44.14,-24.99999 0,-0.96 -43.54,-26.08 -44.98,-25.96 -0.6,0 -10.52,5.62 -22.13,12.2"
         class="st2"
         id="path3-8-9"
         style="fill:#adadad" /><path
         d="m -313.20886,-197.73939 c -27.51,15.79 -49.64001,29.19 -49.05001,29.67 1.91,2.03 42.83001,25 44.26001,25 1.67,0 50.96,-27.99 54.43,-30.86 1.78999,-1.67 2.02999,-4.55 2.02999,-27.39 0,-14 -0.36,-25.48 -0.83999,-25.36 -0.59,-0.01 -23.44,13.03 -50.83,28.94"
         class="st0"
         id="path4-7-15"
         style="fill:#53bcea" /><path
         d="m -241.18886,-200.84939 v 26.2 l 27.38999,15.79 c 15.19,8.73 28.11,15.79 28.95,15.79 1.32,0 39.48,-21.29 43.42,-24.28 1.56,-1.2 -4.9,-5.38 -40.79,-25.96 -23.45,-13.52 -46.3,-26.56 -50.84,-29.07 l -8.12999,-4.67 z"
         class="st1"
         id="path5-3-9"
         style="fill:#3793d3" /><path
         d="m -373.73887,-123.92939 0.36,26.440003 55.03001,31.7 c 30.26,17.35 55.38,31.580002 55.86,31.580002 0.59999,0 0.83999,-11.720002 0.71999,-25.960002 l -0.35999,-25.96 -49.64,-28.470003 c -27.28,-15.79 -52.52001,-30.26 -55.99001,-32.18 l -6.22,-3.71 z"
         class="st1"
         id="path9-9-8"
         style="fill:#3793d3" /><path
         d="m 110.0112,-66.352217 c -11.480004,6.7 -21.170005,12.68 -21.290005,13.4 -0.48,1.44 41.870005,25.839995 44.260005,25.359995 2.51,-0.36 44.02,-23.929995 44.14,-24.999995 0,-0.96 -43.54,-26.08 -44.98,-25.96 -0.6,0 -10.52,5.62 -22.13,12.2"
         class="st2"
         id="path3-8-3"
         style="fill:#adadad" /><path
         d="m 70.110245,-120.08866 c -27.50999,15.79 -49.64,29.190008 -49.05,29.670008 1.91,2.029997 42.83001,24.999997 44.26,24.999997 1.67001,0 50.960005,-27.989997 54.430005,-30.859997 1.79,-1.67 2.03,-4.550008 2.03,-27.390008 0,-14 -0.36,-25.48 -0.84,-25.36 -0.59,-0.01 -23.440008,13.03 -50.830005,28.94"
         class="st0"
         id="path4-7-8"
         style="fill:#53bcea" /><path
         d="m 142.13025,-123.19866 v 26.200008 l 27.39,15.789997 c 15.19,8.73 28.11,15.79 28.95,15.79 1.32,0 39.48,-21.29 43.42,-24.279997 1.56,-1.2 -4.9,-5.38 -40.79,-25.960008 -23.45,-13.52 -46.3,-26.56 -50.84,-29.07 l -8.13,-4.67 z"
         class="st1"
         id="path5-3-6"
         style="fill:#3793d3" /><path
         d="m 9.5802449,-46.278655 0.36,26.440003 55.0300101,31.7 c 30.25999,17.35 55.379995,31.58 55.860005,31.58 0.59999,0 0.83999,-11.72 0.71999,-25.96 l -0.36,-25.9599995 -49.640005,-28.4700005 c -27.27999,-15.790003 -52.52,-30.260003 -55.99,-32.180003 l -6.2200001,-3.71 z"
         class="st1"
         id="path9-9-1"
         style="fill:#3793d3" /><path
         d="m 189.97608,-38.677842 c -28.71,16.63 -53.59,31.1000005 -55.39,32.3000005 l -3.23,2.03 V 21.372158 c 0,14.12 0.24,25.72 0.6,25.72 0.36,0 25.72,-14.36 56.22,-31.94 l 55.63,-32.06 v -25.96 c 0,-14.360003 -0.36,-26.080003 -0.84,-25.960003 -0.6,0 -24.4,13.64 -52.99,30.150003"
         class="st0"
         id="path14-0-9"
         style="fill:#53bcea" /></g></g><style
     id="style1">.st0{fill:#53bcea}.st1{fill:#3793d3}.st2{fill:#adadad}</style></svg>
